<svg xmlns="http://www.w3.org/2000/svg" width="1200" height="630" viewBox="0 0 1200 630">
  <defs>
    <linearGradient id="background" x1="0" y1="0" x2="1" y2="1">
      <stop offset="0" stop-color="#01040d" />
      <stop offset="0.48" stop-color="#06101d" />
      <stop offset="1" stop-color="#0b1324" />
    </linearGradient>
    <radialGradient id="blue-glow" cx="0.88" cy="0.16" r="0.72">
      <stop offset="0" stop-color="#89b4fa" stop-opacity="0.19" />
      <stop offset="1" stop-color="#89b4fa" stop-opacity="0" />
    </radialGradient>
    <pattern id="grid" width="44" height="44" patternUnits="userSpaceOnUse">
      <path d="M44 0H0V44" fill="none" stroke="#94a3b8" stroke-opacity="0.055" />
    </pattern>
    <filter id="shadow" x="-20%" y="-20%" width="140%" height="140%">
      <feDropShadow dx="0" dy="24" stdDeviation="32" flood-color="#01040d" flood-opacity="0.72" />
    </filter>
  </defs>

  <rect width="1200" height="630" fill="url(#background)" />
  <rect width="1200" height="630" fill="url(#blue-glow)" />
  <rect width="1200" height="630" fill="url(#grid)" />

  <g fill="none" stroke="#89b4fa" stroke-opacity="0.2">
    <path d="M690 96 850 188 1040 102 1140 226 970 330 1120 474" />
    <path d="M740 520 900 414 1030 500 1160 392" />
    <path d="M820 188 930 288 1090 252" />
  </g>
  <g fill="#89b4fa">
    <circle cx="690" cy="96" r="3" />
    <circle cx="850" cy="188" r="4" />
    <circle cx="1040" cy="102" r="3" />
    <circle cx="1140" cy="226" r="4" />
    <circle cx="970" cy="330" r="3" />
    <circle cx="1120" cy="474" r="4" />
    <circle cx="740" cy="520" r="3" />
    <circle cx="900" cy="414" r="4" />
    <circle cx="1030" cy="500" r="3" />
    <circle cx="1160" cy="392" r="3" />
  </g>
  <g fill="#a6e3a1">
    <circle cx="930" cy="288" r="4" />
    <circle cx="1090" cy="252" r="3" />
  </g>

  <g filter="url(#shadow)">
    <rect x="70" y="82" width="760" height="466" rx="30" fill="#0f172a" fill-opacity="0.74" />
    <rect
      x="70.5"
      y="82.5"
      width="759"
      height="465"
      rx="29.5"
      fill="none"
      stroke="#94a3b8"
      stroke-opacity="0.25"
    />
  </g>

  <circle cx="116" cy="128" r="7" fill="#f38ba8" fill-opacity="0.75" />
  <circle cx="142" cy="128" r="7" fill="#f9e2af" fill-opacity="0.75" />
  <circle cx="168" cy="128" r="7" fill="#a6e3a1" fill-opacity="0.75" />

  <text
    x="116"
    y="215"
    fill="#94e2d5"
    font-family="ui-monospace, SFMono-Regular, Menlo, Consolas, monospace"
    font-size="25"
  >
    ~/profile on main
  </text>
  <text
    x="110"
    y="318"
    fill="#ffffff"
    font-family="Inter, ui-sans-serif, system-ui, sans-serif"
    font-size="76"
    font-weight="700"
    letter-spacing="-2"
  >
    Nikita Krivoshei
  </text>
  <text
    x="114"
    y="380"
    fill="#cbd5e1"
    font-family="Inter, ui-sans-serif, system-ui, sans-serif"
    font-size="32"
    font-weight="500"
  >
    DevOps-focused Software Engineer
  </text>
  <text
    x="116"
    y="454"
    fill="#89b4fa"
    font-family="ui-monospace, SFMono-Regular, Menlo, Consolas, monospace"
    font-size="24"
  >
    $ deploy engineering-site --target github-pages
  </text>
  <text
    x="116"
    y="496"
    fill="#a6e3a1"
    font-family="ui-monospace, SFMono-Regular, Menlo, Consolas, monospace"
    font-size="24"
  >
    ready
  </text>
</svg>
